<svg width="800" height="600" viewBox="0 0 800 600" fill="none" xmlns="http://www.w3.org/2000/svg">
<g opacity="0.8">
<path d="M42.5427 515.68C-0.0959671 497.583 -36.9171 471.896 -73.5954 446.867C-90.3764 435.364 -107.926 423.607 -128.718 417.979C-144.161 413.821 -160.464 413.267 -176.011 409.542C-220.437 398.944 -251.703 363.403 -259.261 328.659C-266.818 293.916 -255.003 259.949 -239.666 228.532C-224.329 197.115 -205.322 166.748 -197.614 133.226C-192.079 109.103 -192.492 84.041 -193.078 59.0983C-193.808 28.8491 -194.425 -2.02039 -182.302 -29.7926C-170.179 -57.5649 -142.623 -82.1519 -104.287 -86.7837C-56.6099 -92.5615 -7.0329 -67.0837 42.0137 -67.057C56.5303 -67.0191 70.2893 -69.2132 83.8364 -72.3041C94.0539 -74.6095 104.116 -77.4337 114.134 -80.2281C131.744 -85.0924 149.52 -89.7751 168.371 -91.2157C217.801 -94.994 272.2 -74.064 300.944 -40.1636C353.083 21.2449 318.21 94.6809 347.707 159.806C380.297 231.664 418.966 293.547 362.962 361.358C347.448 380.118 326.678 395.868 311.307 414.739C298.375 430.558 289.639 448.4 278.41 465.059L277.359 466.555C271.768 474.737 265.408 482.557 258.322 489.958C238.202 510.788 211.922 527.66 178.95 534.5C135.157 543.658 85.1986 533.752 42.5427 515.68Z" fill="#27ae60" fill-opacity="0.55"/>
<path opacity="0.4" d="M738.644 638.834C758.768 638.541 778.949 638.244 798.904 635.596C803.883 634.933 809.029 634.055 813.165 631.198C816.703 628.751 819.185 625.058 821.174 621.243C824.258 615.307 826.405 608.72 826.251 602.024C826.073 594.235 822.836 586.668 823.31 578.898C823.826 570.526 828.529 563.095 832.078 555.506C835.783 547.585 838.357 538.835 837.297 530.155C835.79 517.821 826.975 507.244 816.299 500.862C805.622 494.479 793.211 491.669 780.942 489.603C765.592 486.983 750.075 485.459 734.508 485.043C727.053 484.881 719.345 485.043 712.476 487.918C706.093 490.605 700.894 495.45 696.106 500.461C684.22 512.895 673.979 526.804 665.633 541.846C662.508 547.481 659.59 553.524 659.505 559.961C659.358 571.004 667.333 580.247 671.673 590.411C675.79 600.009 676.225 610.134 674.248 620.279C672.895 627.263 670.779 634.702 678.611 638.306C686.27 641.833 698.03 639.439 706.163 639.32L738.644 638.834Z" fill="#27ae60"/>
<path opacity="0.5" d="M416.137 645.854C402.884 651.068 387.968 653.906 373.068 656.591C358.357 659.242 343.241 661.752 326.993 659.777C307.423 657.406 287.592 648.584 270.138 637.471C249.592 624.386 226.648 605.321 234.39 585.443C236.267 580.631 239.908 576.744 242.644 572.372C250.944 559.14 246.945 536.381 271.349 536.343C284.862 536.336 299.892 544.531 312.924 543.217C322.693 542.231 329.338 536.024 338.917 534.629C345.607 533.669 353.283 535.154 360.502 537.751C370.024 541.177 378.768 546.505 387.914 550.849C397.601 555.465 407.357 560.218 416.1 566.405C422.741 571.11 428.595 576.591 433.381 582.585C436.295 586.24 438.738 590.073 440.655 593.997C445.677 604.339 446.728 615.312 442.917 624.126C438.449 634.465 427.842 641.245 416.137 645.854Z" fill="#27ae60"/>
<g opacity="0.4">
<circle cx="367.985" cy="235.403" r="5.29142" stroke="#27AE60" stroke-width="3"/>
<circle cx="53.1347" cy="163.686" r="5.29142" stroke="#27AE60" stroke-width="3"/>
<path d="M218.418 154.181L224.19 151.049L224.017 157.614L218.418 154.181Z" stroke="#E0E0E0" stroke-width="3"/>
<path d="M88.2395 326.057L87.6036 319.521L93.582 322.238L88.2395 326.057Z" stroke="#E0E0E0" stroke-width="3"/>
<path d="M358.123 296.253L364.612 297.267L360.489 302.379L358.123 296.253Z" stroke="#E0E0E0" stroke-width="3"/>
<path opacity="0.8" d="M0.265103 319.06L6.53272 317.1L5.09629 323.508L0.265103 319.06Z" stroke="#E0E0E0" stroke-width="3"/>
<rect x="292.446" y="121.767" width="5.1497" height="5.1497" transform="rotate(47.3656 292.446 121.767)" stroke="#6FCF97" stroke-opacity="0.3" stroke-width="3"/>
<rect x="276.042" y="244.217" width="5.1497" height="5.1497" transform="rotate(47.3656 276.042 244.217)" stroke="#6FCF97" stroke-width="3"/>
<rect opacity="0.4" x="341.431" y="111.875" width="5.1497" height="5.1497" stroke="#6FCF97" stroke-width="3"/>
<rect opacity="0.4" x="341.431" y="111.875" width="5.1497" height="5.1497" stroke="#6FCF97" stroke-width="3"/>
<rect opacity="0.4" x="150.789" y="73.0873" width="5.1497" height="5.1497" transform="rotate(41.82 150.789 73.0873)" stroke="#6FCF97" stroke-width="3"/>
<rect opacity="0.4" x="136.054" y="6.79937" width="5.1497" height="5.1497" transform="rotate(47.5636 136.054 6.79937)" stroke="#6FCF97" stroke-width="3"/>
<rect opacity="0.4" x="401.953" y="181.82" width="5.1497" height="5.1497" stroke="#6FCF97" stroke-opacity="0.54" stroke-width="3"/>
<rect opacity="0.4" x="152.748" y="226.425" width="5.1497" height="5.1497" stroke="#6FCF97" stroke-width="3"/>
<rect opacity="0.4" x="238.769" y="108.07" width="5.1497" height="5.1497" transform="rotate(54.4495 238.769 108.07)" stroke="#6FCF97" stroke-opacity="0.25" stroke-width="3"/>
<rect x="226.363" y="339.952" width="10.5828" height="10.5828" transform="rotate(-55.7023 226.363 339.952)" stroke="#6FCF97" stroke-width="3"/>
<circle cx="428.021" cy="41.1689" r="5.29142" stroke="#BDBDBD" stroke-width="3"/>
</g>
<g opacity="0.4">
<circle cx="784.947" cy="62.3054" r="5.29142" transform="rotate(-90.04 784.947 62.3054)" stroke="#27AE60" stroke-width="3"/>
<circle cx="713.45" cy="377.205" r="5.29142" transform="rotate(-90.04 713.45 377.205)" stroke="#27AE60" stroke-width="3"/>
<path d="M703.829 211.928L700.694 206.159L707.258 206.328L703.829 211.928Z" stroke="#E0E0E0" stroke-width="3"/>
<rect x="671.363" y="137.923" width="5.1497" height="5.1497" transform="rotate(-42.6744 671.363 137.923)" stroke="#6FCF97" stroke-opacity="0.3" stroke-width="3"/>
<rect x="793.825" y="154.242" width="5.1497" height="5.1497" transform="rotate(-42.6744 793.825 154.242)" stroke="#6FCF97" stroke-width="3"/>
<rect opacity="0.4" x="661.438" y="88.9452" width="5.1497" height="5.1497" transform="rotate(-90.04 661.438 88.9452)" stroke="#6FCF97" stroke-width="3"/>
<rect opacity="0.4" x="661.438" y="88.9452" width="5.1497" height="5.1497" transform="rotate(-90.04 661.438 88.9452)" stroke="#6FCF97" stroke-width="3"/>
<rect opacity="0.4" x="622.783" y="279.615" width="5.1497" height="5.1497" transform="rotate(-48.22 622.783 279.615)" stroke="#6FCF97" stroke-width="3"/>
<rect opacity="0.4" x="556.505" y="294.395" width="5.1497" height="5.1497" transform="rotate(-42.4764 556.505 294.395)" stroke="#6FCF97" stroke-width="3"/>
<rect opacity="0.4" x="731.34" y="28.3749" width="5.1497" height="5.1497" transform="rotate(-90.04 731.34 28.3749)" stroke="#6FCF97" stroke-opacity="0.54" stroke-width="3"/>
<rect opacity="0.4" x="776.119" y="277.548" width="5.1497" height="5.1497" transform="rotate(-90.04 776.119 277.548)" stroke="#6FCF97" stroke-width="3"/>
<rect opacity="0.4" x="657.704" y="191.61" width="5.1497" height="5.1497" transform="rotate(-35.5905 657.704 191.61)" stroke="#6FCF97" stroke-opacity="0.25" stroke-width="3"/>
<circle cx="590.671" cy="2.40502" r="5.29142" transform="rotate(-90.04 590.671 2.40502)" stroke="#BDBDBD" stroke-width="3"/>
</g>
<g opacity="0.4">
<circle cx="406.416" cy="478.015" r="5.29142" transform="rotate(0.37648 406.416 478.015)" stroke="#27AE60" stroke-width="3"/>
<circle cx="92.0438" cy="404.23" r="5.29142" transform="rotate(0.37648 92.0438 404.23)" stroke="#27AE60" stroke-width="3"/>
<path d="M257.387 395.812L263.179 392.718L262.962 399.281L257.387 395.812Z" stroke="#E0E0E0" stroke-width="3"/>
<path d="M126.081 566.828L125.488 560.288L131.448 563.045L126.081 566.828Z" stroke="#E0E0E0" stroke-width="3"/>
<path d="M396.155 538.798L402.636 539.855L398.481 544.939L396.155 538.798Z" stroke="#E0E0E0" stroke-width="3"/>
<path opacity="0.8" d="M38.1546 559.253L44.435 557.334L42.9564 563.733L38.1546 559.253Z" stroke="#E0E0E0" stroke-width="3"/>
<rect x="331.626" y="363.884" width="5.1497" height="5.1497" transform="rotate(47.7421 331.626 363.884)" stroke="#27ae60" stroke-opacity="0.3" stroke-width="3"/>
<rect x="314.417" y="486.224" width="5.1497" height="5.1497" transform="rotate(47.7421 314.417 486.224)" stroke="#27ae60" stroke-width="3"/>
<rect opacity="0.4" x="380.674" y="354.315" width="5.1497" height="5.1497" transform="rotate(0.37648 380.674 354.315)" stroke="#6FCF97" stroke-width="3"/>
<rect opacity="0.4" x="380.674" y="354.315" width="5.1497" height="5.1497" transform="rotate(0.37648 380.674 354.315)" stroke="#6FCF97" stroke-width="3"/>
<rect opacity="0.4" x="190.291" y="314.275" width="5.1497" height="5.1497" transform="rotate(42.1965 190.291 314.275)" stroke="#6FCF97" stroke-width="3"/>
<rect opacity="0.4" x="175.993" y="247.891" width="5.1497" height="5.1497" transform="rotate(47.9401 175.993 247.891)" stroke="#6FCF97" stroke-width="3"/>
<rect opacity="0.4" x="440.735" y="424.655" width="5.1497" height="5.1497" transform="rotate(0.37648 440.735 424.655)" stroke="#6FCF97" stroke-opacity="0.54" stroke-width="3"/>
<rect opacity="0.4" x="191.243" y="467.622" width="5.1497" height="5.1497" transform="rotate(0.37648 191.243 467.622)" stroke="#6FCF97" stroke-width="3"/>
<rect opacity="0.4" x="278.04" y="349.835" width="5.1497" height="5.1497" transform="rotate(54.826 278.04 349.835)" stroke="#6FCF97" stroke-opacity="0.25" stroke-width="3"/>
<rect x="264.11" y="581.631" width="10.5828" height="10.5828" transform="rotate(-55.3258 264.11 581.631)" stroke="#6FCF97" stroke-width="3"/>
<circle cx="467.727" cy="284.179" r="5.29142" transform="rotate(0.37648 467.727 284.179)" stroke="#BDBDBD" stroke-width="3"/>
</g>
</g>
</svg>
