<svg width="582" height="131" viewBox="0 0 582 131" fill="none" xmlns="http://www.w3.org/2000/svg">
<path d="M113.357 96.876C113.357 101.524 112.472 105.924 110.701 110.074C108.93 114.169 106.495 117.739 103.396 120.782C100.353 123.826 96.7559 126.233 92.6055 128.004C88.5104 129.775 84.111 130.66 79.4072 130.66C75.2015 130.66 71.1618 129.941 67.2881 128.502C63.4144 127.008 59.9004 124.85 56.7461 122.027C53.6471 124.85 50.1608 127.008 46.2871 128.502C42.4688 129.941 38.429 130.66 34.168 130.66C29.4642 130.66 25.0648 129.775 20.9697 128.004C16.8747 126.233 13.2777 123.826 10.1787 120.782C7.13509 117.739 4.72786 114.169 2.95703 110.074C1.1862 105.924 0.300781 101.524 0.300781 96.876V40.2646H22.9619V96.876C22.9619 98.4255 23.2386 99.8919 23.792 101.275C24.4007 102.604 25.2031 103.793 26.1992 104.845C27.2507 105.841 28.4404 106.643 29.7686 107.252C31.152 107.805 32.6185 108.082 34.168 108.082C35.7174 108.082 37.1839 107.805 38.5674 107.252C39.9508 106.643 41.1683 105.841 42.2197 104.845C43.2712 103.793 44.0736 102.604 44.627 101.275C45.2357 99.8919 45.54 98.4255 45.54 96.876V40.2646H68.1182V96.876C68.1182 98.4255 68.4225 99.8919 69.0312 101.275C69.64 102.604 70.4424 103.793 71.4385 104.845C72.4899 105.841 73.6797 106.643 75.0078 107.252C76.3913 107.805 77.8577 108.082 79.4072 108.082C80.9567 108.082 82.4232 107.805 83.8066 107.252C85.1901 106.643 86.3799 105.841 87.376 104.845C88.4274 103.793 89.2575 102.604 89.8662 101.275C90.4749 99.8919 90.7793 98.4255 90.7793 96.876V40.2646H113.357V96.876ZM165.154 107.252C166.04 107.529 166.925 107.722 167.811 107.833C168.696 107.888 169.581 107.916 170.467 107.916C172.68 107.916 174.811 107.612 176.858 107.003C178.906 106.394 180.815 105.536 182.586 104.43C184.412 103.268 186.017 101.884 187.4 100.279C188.839 98.6191 190.001 96.793 190.887 94.8008L207.488 111.485C205.385 114.474 202.951 117.158 200.184 119.537C197.472 121.917 194.511 123.937 191.302 125.597C188.147 127.257 184.799 128.502 181.258 129.332C177.771 130.217 174.174 130.66 170.467 130.66C164.214 130.66 158.32 129.498 152.786 127.174C147.308 124.85 142.493 121.612 138.343 117.462C134.248 113.312 131.01 108.386 128.631 102.687C126.251 96.9313 125.062 90.6227 125.062 83.7607C125.062 76.7327 126.251 70.3135 128.631 64.5029C131.01 58.6924 134.248 53.7396 138.343 49.6445C142.493 45.5495 147.308 42.3675 152.786 40.0986C158.32 37.8298 164.214 36.6953 170.467 36.6953C174.174 36.6953 177.799 37.138 181.341 38.0234C184.882 38.9089 188.23 40.1816 191.385 41.8418C194.594 43.502 197.583 45.5495 200.35 47.9844C203.117 50.3639 205.551 53.0479 207.654 56.0361L165.154 107.252ZM176.775 60.5186C175.724 60.1312 174.673 59.8822 173.621 59.7715C172.625 59.6608 171.574 59.6055 170.467 59.6055C167.368 59.6055 164.435 60.1865 161.668 61.3486C158.956 62.4554 156.577 64.0602 154.529 66.1631C152.537 68.266 150.96 70.8115 149.798 73.7998C148.636 76.7327 148.055 80.0531 148.055 83.7607C148.055 84.5908 148.082 85.5316 148.138 86.583C148.248 87.6344 148.387 88.7135 148.553 89.8203C148.774 90.8717 149.023 91.8955 149.3 92.8916C149.576 93.8877 149.936 94.7731 150.379 95.5479L176.775 60.5186ZM308.094 83.7607C308.094 90.7334 306.904 97.0973 304.524 102.853C302.145 108.608 298.908 113.561 294.812 117.711C290.717 121.806 285.903 124.988 280.369 127.257C274.891 129.526 268.997 130.66 262.688 130.66C256.435 130.66 250.542 129.498 245.008 127.174C239.529 124.85 234.715 121.612 230.564 117.462C226.469 113.312 223.232 108.386 220.853 102.687C218.473 96.9313 217.283 90.6227 217.283 83.7607V4.7373H240.027V46.2412C241.245 44.6917 242.711 43.3083 244.427 42.0908C246.198 40.8734 248.079 39.8773 250.071 39.1025C252.119 38.3278 254.222 37.7467 256.38 37.3594C258.538 36.9167 260.641 36.6953 262.688 36.6953C268.997 36.6953 274.891 37.8851 280.369 40.2646C285.903 42.5889 290.717 45.8538 294.812 50.0596C298.908 54.2653 302.145 59.2458 304.524 65.001C306.904 70.7008 308.094 76.9541 308.094 83.7607ZM285.267 83.7607C285.267 80.3298 284.658 77.1478 283.44 74.2148C282.278 71.2266 280.674 68.6533 278.626 66.4951C276.578 64.3369 274.171 62.6491 271.404 61.4316C268.693 60.2142 265.787 59.6055 262.688 59.6055C259.59 59.6055 256.657 60.2972 253.89 61.6807C251.178 63.0088 248.799 64.8073 246.751 67.0762C244.703 69.2897 243.099 71.863 241.937 74.7959C240.774 77.6735 240.193 80.6618 240.193 83.7607C240.193 87.1917 240.774 90.3737 241.937 93.3066C243.099 96.2396 244.703 98.7852 246.751 100.943C248.799 103.102 251.178 104.817 253.89 106.09C256.657 107.307 259.59 107.916 262.688 107.916C265.787 107.916 268.693 107.307 271.404 106.09C274.171 104.817 276.578 103.102 278.626 100.943C280.674 98.7852 282.278 96.2396 283.44 93.3066C284.658 90.3737 285.267 87.1917 285.267 83.7607Z" fill="#17A286"/>
<path d="M406.624 83.7607C406.624 90.4014 405.434 96.5993 403.055 102.354C400.675 108.054 397.438 113.007 393.343 117.213C389.248 121.363 384.433 124.656 378.899 127.091C373.421 129.47 367.527 130.66 361.219 130.66C354.965 130.66 349.072 129.47 343.538 127.091C338.06 124.656 333.245 121.363 329.095 117.213C325 113.007 321.762 108.054 319.383 102.354C317.003 96.5993 315.813 90.4014 315.813 83.7607C315.813 77.0094 317.003 70.7562 319.383 65.001C321.762 59.2458 325 54.293 329.095 50.1426C333.245 45.9368 338.06 42.6442 343.538 40.2646C349.072 37.8851 354.965 36.6953 361.219 36.6953C367.527 36.6953 373.421 37.8298 378.899 40.0986C384.433 42.3122 389.248 45.4941 393.343 49.6445C397.438 53.7396 400.675 58.6924 403.055 64.5029C405.434 70.2581 406.624 76.6774 406.624 83.7607ZM383.797 83.7607C383.797 80.1084 383.188 76.8158 381.971 73.8828C380.809 70.8945 379.204 68.349 377.156 66.2461C375.109 64.0879 372.701 62.4554 369.935 61.3486C367.223 60.1865 364.318 59.6055 361.219 59.6055C358.12 59.6055 355.187 60.1865 352.42 61.3486C349.708 62.4554 347.329 64.0879 345.281 66.2461C343.289 68.349 341.712 70.8945 340.55 73.8828C339.388 76.8158 338.807 80.1084 338.807 83.7607C338.807 87.1917 339.388 90.3737 340.55 93.3066C341.712 96.2396 343.289 98.7852 345.281 100.943C347.329 103.102 349.708 104.817 352.42 106.09C355.187 107.307 358.12 107.916 361.219 107.916C364.318 107.916 367.223 107.335 369.935 106.173C372.701 105.011 375.109 103.378 377.156 101.275C379.204 99.1725 380.809 96.627 381.971 93.6387C383.188 90.6504 383.797 87.3577 383.797 83.7607ZM441.819 129H419.158V40.0986H424.637L432.107 48.7314C435.76 45.4111 439.882 42.8656 444.476 41.0947C449.124 39.2686 453.966 38.3555 459.002 38.3555C464.425 38.3555 469.544 39.4069 474.358 41.5098C479.173 43.5573 483.379 46.4072 486.976 50.0596C490.573 53.6566 493.395 57.89 495.442 62.7598C497.545 67.5742 498.597 72.7207 498.597 78.1992V129H475.936V78.1992C475.936 75.875 475.493 73.6891 474.607 71.6416C473.722 69.5387 472.505 67.7126 470.955 66.1631C469.406 64.6136 467.607 63.3962 465.56 62.5107C463.512 61.6253 461.326 61.1826 459.002 61.1826C456.622 61.1826 454.381 61.6253 452.278 62.5107C450.175 63.3962 448.349 64.6136 446.8 66.1631C445.25 67.7126 444.033 69.5387 443.147 71.6416C442.262 73.6891 441.819 75.875 441.819 78.1992V129Z" fill="#548163"/>
<path d="M537.61 129H514.783V4.7373H537.61V129Z" fill="#D2D2D2"/>
<path d="M581.688 15.9434C581.688 18.0462 581.272 20.0107 580.442 21.8369C579.668 23.6631 578.589 25.2679 577.205 26.6514C575.822 27.9795 574.189 29.0586 572.308 29.8887C570.481 30.6634 568.517 31.0508 566.414 31.0508C564.311 31.0508 562.319 30.6634 560.438 29.8887C558.611 29.0586 557.007 27.9795 555.623 26.6514C554.295 25.2679 553.216 23.6631 552.386 21.8369C551.611 20.0107 551.224 18.0462 551.224 15.9434C551.224 13.8958 551.611 11.959 552.386 10.1328C553.216 8.2513 554.295 6.64648 555.623 5.31836C557.007 3.9349 558.611 2.85579 560.438 2.08105C562.319 1.25098 564.311 0.835938 566.414 0.835938C568.517 0.835938 570.481 1.25098 572.308 2.08105C574.189 2.85579 575.822 3.9349 577.205 5.31836C578.589 6.64648 579.668 8.2513 580.442 10.1328C581.272 11.959 581.688 13.8958 581.688 15.9434ZM577.786 129H554.959V40.0986H577.786V129Z" fill="#DBE5DE"/>
</svg>
