<svg width="1440" height="1024" viewBox="0 0 1440 1024" fill="none" xmlns="http://www.w3.org/2000/svg">
<g clip-path="url(#clip0)">
<rect width="1440" height="1024" fill="white"/>
<ellipse cx="209" cy="526.5" rx="446" ry="424.5" fill="#6FCF97" fill-opacity="0.25"/>
<ellipse cx="1551" cy="419" rx="252" ry="240" fill="url(#paint0_linear)" fill-opacity="0.25"/>
<path d="M1875.5 426C1875.5 590.282 1735.61 723.5 1563 723.5C1390.39 723.5 1250.5 590.282 1250.5 426C1250.5 261.718 1390.39 128.5 1563 128.5C1735.61 128.5 1875.5 261.718 1875.5 426Z" stroke="#6FCF97"/>
<ellipse cx="1302.5" cy="268.667" rx="17.5" ry="16.6667" fill="#6FCF97"/>
<g filter="url(#filter0_d)">
<ellipse cx="1341.34" cy="637.565" rx="45.1359" ry="46.238" transform="rotate(-75 1341.34 637.565)" fill="url(#paint1_linear)" style="mix-blend-mode:darken"/>
<path d="M1352.38 596.382C1375.77 602.649 1389.67 626.195 1383.59 648.885C1377.51 671.576 1353.7 685.015 1330.31 678.748C1306.92 672.481 1293.02 648.935 1299.1 626.245C1305.18 603.555 1328.99 590.115 1352.38 596.382Z" stroke="#219653" stroke-width="5"/>
</g>
</g>
<defs>
<filter id="filter0_d" x="1224" y="566" width="234.689" height="233.13" filterUnits="userSpaceOnUse" color-interpolation-filters="sRGB">
<feFlood flood-opacity="0" result="BackgroundImageFix"/>
<feColorMatrix in="SourceAlpha" type="matrix" values="0 0 0 0 0 0 0 0 0 0 0 0 0 0 0 0 0 0 127 0"/>
<feOffset dy="45"/>
<feGaussianBlur stdDeviation="30.5"/>
<feColorMatrix type="matrix" values="0 0 0 0 0.129412 0 0 0 0 0.588235 0 0 0 0 0.32549 0 0 0 1 0"/>
<feBlend mode="normal" in2="BackgroundImageFix" result="effect1_dropShadow"/>
<feBlend mode="normal" in="SourceGraphic" in2="effect1_dropShadow" result="shape"/>
</filter>
<linearGradient id="paint0_linear" x1="1551" y1="179" x2="1551" y2="659" gradientUnits="userSpaceOnUse">
<stop stop-color="#219653"/>
<stop offset="1" stop-color="#6FCF97" stop-opacity="0"/>
</linearGradient>
<linearGradient id="paint1_linear" x1="1341.34" y1="591.327" x2="1341.34" y2="683.803" gradientUnits="userSpaceOnUse">
<stop stop-color="#314439"/>
<stop offset="0.984175" stop-color="#219653"/>
<stop offset="0.984275" stop-color="#21DF70" stop-opacity="0.375"/>
</linearGradient>
<clipPath id="clip0">
<rect width="1440" height="1024" fill="white"/>
</clipPath>
</defs>
</svg>
