<svg height="416pt" viewBox="0 -34 416.42667 416" width="416pt" xmlns="http://www.w3.org/2000/svg"><path d="m109.59375 188.71875c-20.226562 0-36.679688 16.453125-36.679688 36.679688 0 20.222656 16.453126 36.675781 36.679688 36.675781s36.679688-16.457031 36.679688-36.675781c0-20.226563-16.453126-36.679688-36.679688-36.679688zm0 59.703125c-12.699219 0-23.027344-10.328125-23.027344-23.019531 0-12.699219 10.328125-23.027344 23.027344-23.027344s23.027344 10.328125 23.027344 23.027344c0 12.691406-10.328125 23.019531-23.027344 23.019531zm0 0"/><path d="m272.5 188.71875c-20.226562 0-36.679688 16.453125-36.679688 36.679688 0 20.222656 16.453126 36.675781 36.679688 36.675781s36.679688-16.457031 36.679688-36.675781c0-20.226563-16.453126-36.679688-36.679688-36.679688zm0 59.703125c-12.699219 0-23.027344-10.328125-23.027344-23.019531 0-12.699219 10.328125-23.027344 23.027344-23.027344s23.027344 10.328125 23.027344 23.027344c0 12.691406-10.328125 23.019531-23.027344 23.019531zm0 0"/><path d="m225.875 276.304688c-20.808594 10.714843-41.582031 10.695312-63.523438-.058594-3.382812-1.679688-7.476562-.253906-9.132812 3.121094-1.660156 3.386718-.265625 7.480468 3.121094 9.132812 12.839844 6.300781 25.625 9.445312 38.265625 9.445312 12.679687 0 25.214843-3.164062 37.519531-9.503906 3.355469-1.722656 4.667969-5.839844 2.941406-9.195312-1.714844-3.351563-5.828125-4.679688-9.191406-2.941406zm0 0"/><path d="m409.601562.214844h-177.496093c-3.773438 0-6.824219 3.050781-6.824219 6.824218v68.269532h-27.308594v-40.960938c0-3.773437-3.050781-6.828125-6.824218-6.828125-3.773438 0-6.828126 3.054688-6.828126 6.828125v40.960938h-68.945312c-44.796875 0-81.242188 36.445312-81.242188 81.238281v23.851563c-19.875 5.21875-34.132812 23.324218-34.132812 44.074218 0 20.84375 14.226562 38.835938 34.132812 44.054688v29.503906c0 27.761719 22.578126 50.34375 50.339844 50.34375h220.175782c27.757812 0 50.339843-22.582031 50.339843-50.339844v-30.71875c17.945313-6.480468 30.097657-23.28125 30.097657-42.84375 0-19.25-12.253907-36.28125-30.097657-42.796875v-25.128906c0-14.265625-3.707031-28.042969-10.710937-40.28125h65.324218c3.773438 0 6.824219-3.050781 6.824219-6.824219v-102.402344c0-3.773437-3.050781-6.824218-6.824219-6.824218zm-395.949218 224.257812c0-13.332031 8.367187-25.15625 20.480468-29.863281v59.765625c-12.136718-4.691406-20.480468-16.503906-20.480468-29.902344zm357.78125 0c0 11.714844-6.585938 22.289063-16.445313 27.871094v-55.753906c9.917969 5.582031 16.445313 16.136718 16.445313 27.882812zm-42.304688-106.679687c7.984375 11.394531 12.203125 24.800781 12.203125 38.753906v104.375c-.214843.960937-.273437 1.960937-.042969 2.984375.007813.042969.035157.074219.042969.113281v34.015625c0 20.226563-16.460937 36.683594-36.683593 36.683594h-220.175782c-20.226562 0-36.6875-16.460938-36.6875-36.683594v-141.488281c0-37.265625 30.320313-67.585937 67.589844-67.585937h109.90625v20.480468c0 3.773438 3.050781 6.824219 6.824219 6.824219h34.132812v30.40625c0 2.828125 1.746094 5.367187 4.386719 6.375.792969.304687 1.621094.453125 2.441406.453125 1.898438 0 3.761719-.792969 5.082032-2.265625l31.351562-34.96875h18.960938c.195312.519531.332031 1.050781.667968 1.527344zm73.644532-15.179688h-96.320313c-1.941406 0-3.789063.824219-5.082031 2.265625l-21.476563 23.953125v-19.390625c0-3.773437-3.054687-6.828125-6.828125-6.828125h-34.132812v-88.746093h163.839844zm0 0"/><path d="m263.078125 47.621094h39.449219c3.773437 0 6.824218-3.054688 6.824218-6.828125 0-3.773438-3.050781-6.828125-6.824218-6.828125h-39.449219c-3.773437 0-6.824219 3.054687-6.824219 6.828125 0 3.773437 3.054688 6.828125 6.824219 6.828125zm0 0"/><path d="m263.078125 81.753906h119.214844c3.773437 0 6.828125-3.054687 6.828125-6.828125 0-3.773437-3.054688-6.828125-6.828125-6.828125h-119.214844c-3.773437 0-6.824219 3.054688-6.824219 6.828125 0 3.773438 3.054688 6.828125 6.824219 6.828125zm0 0"/></svg>